<?xml version="1.0" encoding="UTF-8"?>
<svg width="300px" height="300px" viewBox="0 0 300 300" version="1.1" xmlns="http://www.w3.org/2000/svg" xmlns:xlink="http://www.w3.org/1999/xlink">
    <title>Logo_vertical_RED@1x</title>
    <defs>
        <polygon id="path-1" points="0 0.0653142857 41.7630857 0.0653142857 41.7630857 54.4304571 0 54.4304571"></polygon>
        <polygon id="path-3" points="0.486285714 0.678171429 20.2005714 0.678171429 20.2005714 26.1747429 0.486285714 26.1747429"></polygon>
        <polygon id="path-5" points="0 0.3708 25.3541143 0.3708 25.3541143 35.6250857 0 35.6250857"></polygon>
    </defs>
    <g id="Logo_vertical_RED" stroke="none" stroke-width="1" fill="none" fill-rule="evenodd">
        <g id="Group-44" transform="translate(45.000000, 1.000000)">
            <g id="Group-3" transform="translate(0.000000, 155.866286)">
                <mask id="mask-2" fill="white">
                    <use xlink:href="#path-1"></use>
                </mask>
                <g id="Clip-2"></g>
                <path d="M28.3728,43.5670286 C27.0768,44.4893143 24.4145143,45.2710286 21.5259429,45.2710286 C16.2322286,45.2710286 13.8442286,41.2064571 13.9368,36.4750286 C14.0225143,32.5458857 16.4756571,28.1024571 23.0859429,28.1024571 L28.3728,28.1024571 L28.3728,43.5670286 Z M41.7630857,18.1956 C41.7630857,4.5516 32.0225143,0.0653142857 22.9213714,0.0653142857 C16.6299429,0.0653142857 10.9745143,1.84474286 5.15965714,4.74188571 L3.67508571,5.50131429 L7.21165714,13.3990286 L9.21565714,12.4596 C13.3230857,10.6167429 17.7150857,9.38417143 21.6630857,9.54188571 C26.4322286,9.73902857 28.3899429,11.9298857 28.3899429,16.5018857 L28.3899429,19.1813143 L20.5796571,19.1813143 C8.02937143,19.1813143 0.217371429,25.8310286 -0.000342857143,36.1630286 C-0.000342857143,45.9756 8.17851429,54.4304571 19.5596571,54.4304571 C28.7413714,54.4304571 36.5156571,51.4493143 41.7630857,46.1984571 L41.7630857,18.1956 Z" id="Fill-1" fill="#E20714" mask="url(#mask-2)"></path>
            </g>
            <path d="M58.2337714,152.673771 C62.9292,152.673771 66.6132,148.998343 66.6132,144.333771 C66.6732,142.115486 65.8606286,140.010343 64.3143429,138.417771 C62.7663429,136.792629 60.6389143,135.9012 58.3537714,135.9012 C53.6737714,135.9012 49.8526286,139.655486 49.8526286,144.272057 C49.8526286,148.991486 53.5417714,152.673771 58.2337714,152.673771" id="Fill-4" fill="#E20714"></path>
            <polygon id="Fill-6" fill="#E20714" points="64.8013714 156.870857 51.6305143 159.020571 51.6305143 209.34 64.8013714 209.34"></polygon>
            <path d="M207.319714,201.084 C201.837429,200.664 200.692286,198.262286 200.692286,194.244 L200.692286,142.333714 L187.482,144.586286 L187.482,193.390286 C187.482,204.963429 193.764857,209.917714 204.275143,209.917714 C206.524286,209.917714 209.313429,209.388 209.313429,209.388 L209.313429,201.099429 C209.313429,201.099429 208.079143,201.137143 207.319714,201.084" id="Fill-8" fill="#E20714"></path>
            <path d="M83.1898286,108.718457 C86.6372571,108.718457 90.7189714,107.876743 95.3235429,106.212171 C102.211543,103.728171 107.668114,100.279029 112.937829,96.9447429 L114.367543,96.0464571 C119.940686,92.5321714 125.381829,88.4453143 130.985829,83.5424571 C143.374971,72.7013143 150.816686,62.0710286 155.076686,49.0801714 C156.802971,43.8224571 159.245829,33.5538857 156.250971,23.9247429 C154.054971,16.9047429 149.808686,11.1396 143.625257,6.76645714 C142.918971,6.18017143 135.211543,0.000171428571 120.664114,0.000171428571 C107.362971,0.000171428571 92.7795429,5.13274286 77.3201143,15.2676 L76.8264,15.5916 L76.7544,15.6327429 C76.3069714,15.9104571 75.8681143,16.1847429 75.3709714,16.5104571 C75.0161143,16.7761714 74.6424,17.0350286 74.1761143,17.3041714 C71.0166857,19.4521714 68.0029714,21.7681714 65.1932571,24.2487429 C58.6652571,30.5590286 51.2184,41.1224571 51.6795429,50.0898857 C51.8715429,53.9058857 53.4606857,57.0036 56.3886857,59.3161714 C59.0372571,61.3887429 62.3389714,62.4396 66.2081143,62.4396 C74.1246857,62.4396 82.8109714,58.1247429 88.7492571,54.4733143 C89.1126857,54.2127429 89.4864,53.9658857 89.8686857,53.7190286 C90.9041143,53.0333143 91.9326857,52.3407429 92.9766857,51.6481714 L93.9864,50.9658857 C102.425829,45.3087429 111.156686,39.4596 120.994971,36.0430286 C123.5424,35.1636 125.772686,34.7350286 127.819543,34.7350286 C128.839543,34.7350286 129.832114,34.8344571 130.774971,35.0624571 C133.764686,35.7464571 135.955543,37.4538857 137.2704,40.1298857 C139.545257,44.7756 139.001829,52.1110286 135.898971,58.8190286 C131.668114,67.9613143 124.389257,76.9716 114.2904,85.6030286 C109.150971,89.9898857 104.393829,93.3858857 100.161257,95.6864571 L99.7806857,95.8990286 C97.8041143,96.9841714 95.5789714,98.2030286 93.2269714,99.0944571 L92.9166857,99.2161714 C92.2138286,99.4767429 91.6241143,99.6996 91.0789714,99.8898857 C81.2046857,102.535029 87.2132571,93.8333143 87.2132571,93.8333143 C89.3886857,91.2378857 91.6052571,89.1773143 93.9504,86.9933143 C95.2909714,85.7487429 96.6726857,84.4561714 98.0578286,83.0538857 L98.3664,82.7487429 C100.084114,81.0190286 102.4464,78.6584571 102.304114,75.2624571 C102.108686,70.7710286 97.5401143,67.9613143 93.2612571,67.8430286 C93.1515429,67.8378857 93.0486857,67.8378857 92.9389714,67.8378857 C88.8144,67.8378857 84.9058286,70.2653143 82.3566857,72.2984571 C79.7972571,74.3453143 77.0766857,77.4104571 75.2646857,80.2990286 C72.6384,84.4681714 67.1081143,95.0967429 72.4926857,103.594457 C74.6441143,106.997314 78.2458286,108.718457 83.1898286,108.718457" id="Fill-10" fill="#E20714"></path>
            <path d="M158.914629,166.150457 C164.770629,166.150457 165.638057,172.5036 165.638057,176.455029 L151.376914,176.455029 C151.601486,171.379029 153.713486,166.150457 158.914629,166.150457 M160.426629,210.432171 C163.546629,210.432171 166.798629,209.971029 169.7712,209.0436 C175.472914,207.283029 179.676343,204.229886 179.676343,204.229886 L175.952914,196.585886 C175.287771,197.086457 169.6032,201.044743 161.7672,201.044743 C158.160343,201.044743 155.7192,199.8636 154.1232,198.137314 C151.7472,195.574457 150.701486,190.308171 150.977486,184.7196 L179.386629,184.7196 L179.386629,183.4116 C179.139771,164.8116 172.800343,156.3396 158.914629,156.3396 C143.429486,156.3396 137.393486,170.592171 137.280343,183.9876 C137.180914,192.449314 140.379771,200.972743 146.228914,205.829314 C149.7792,208.786457 154.707771,210.432171 160.426629,210.432171" id="Fill-12" fill="#E20714"></path>
            <path d="M106.891714,157.660971 C105.45,156.951257 102.002571,156.064971 98.0168571,156.064971 C92.2277143,156.064971 83.3494286,157.763829 75.3437143,166.270114 L75.3368571,209.387829 L88.7717143,209.387829 L88.7717143,168.8004 C90.5288571,167.0964 94.2505714,165.594686 97.7785714,165.445543 C101.052857,165.3204 103.175143,166.0044 103.175143,166.0044 L106.891714,157.660971 Z" id="Fill-14" fill="#E20714"></path>
            <path d="M132.637886,166.580571 L132.637886,156.898286 L123.9516,156.898286 L123.9516,142.409143 L110.446457,144.572571 L110.446457,193.623429 C110.446457,204.608571 116.866457,209.799429 127.627029,209.799429 C130.208743,209.799429 132.637886,209.321143 132.637886,209.321143 L132.637886,201.154286 C132.4956,201.137143 131.497886,201.137143 130.735029,201.108 C125.071029,200.914286 123.9516,197.790857 123.9516,194.184 L123.9516,166.580571 L132.637886,166.580571 Z" id="Fill-16" fill="#E20714"></path>
            <path d="M180.887314,222.276514 L174.736457,222.955371 L174.736457,248.6988 C174.736457,253.296514 177.302743,255.739371 182.1696,255.739371 C182.426743,255.746229 182.675314,255.7548 182.923886,255.7548 C185.0136,255.7548 186.5256,255.391371 186.594171,255.374229 L186.781029,255.3228 L186.781029,250.265657 L186.5136,250.287943 C185.058171,250.3908 184.482171,250.3908 183.496457,250.332514 C181.189029,250.1868 180.887314,248.823943 180.887314,247.515943 L180.887314,236.191371 L186.781029,236.191371 L186.781029,230.546229 L180.887314,230.546229 L180.887314,222.276514 Z" id="Fill-18" fill="#E20714"></path>
            <path d="M6.42188571,242.908114 L11.9864571,242.908114 C20.1036,242.908114 24.7596,238.774971 24.7596,231.562971 C24.7596,224.326971 20.3590286,220.181829 12.6996,220.181829 L0.000171428571,220.181829 L0.000171428571,255.439543 L6.42188571,255.439543 L6.42188571,242.908114 Z M6.42188571,226.288114 L12.2641714,226.288114 C14.4738857,226.288114 18.1716,226.961829 18.1716,231.468686 C18.1716,234.960686 15.9087429,236.796686 11.6298857,236.796686 L6.42188571,236.796686 L6.42188571,226.288114 Z" id="Fill-20" fill="#E20714"></path>
            <polygon id="Fill-22" fill="#E20714" points="54.0737143 264.216171 60.6497143 264.216171 74.0794286 230.863029 74.2165714 230.516743 67.6371429 230.516743 61.5531429 245.842457 55.092 230.662457 55.0268571 230.516743 48.384 230.516743 58.4245714 253.381886"></polygon>
            <path d="M105.560914,230.246914 C102.4152,230.246914 99.5677714,231.4692 97.4986286,233.699486 C95.9506286,231.443486 93.4272,230.246914 90.1460571,230.246914 C87.8352,230.246914 85.5826286,231.074914 83.7397714,232.568057 L83.7397714,230.516057 L77.5906286,230.516057 L77.5906286,255.438343 L83.7397714,255.438343 L83.7397714,243.056057 C83.7397714,238.893771 85.8689143,236.094343 89.0540571,236.094343 C91.1043429,236.094343 93.1992,236.795486 93.1992,242.0172 L93.1992,255.438343 L99.3414857,255.438343 L99.3414857,243.056057 C99.3414857,238.960629 101.441486,236.094343 104.4552,236.094343 C106.414629,236.094343 108.509486,236.543486 108.509486,242.063486 L108.509486,255.438343 L114.650057,255.438343 L114.650057,241.055486 C114.650057,233.874343 111.591771,230.246914 105.560914,230.246914" id="Fill-24" fill="#E20714"></path>
            <path d="M160.788,230.246914 C158.175429,230.246914 155.696571,231.093771 153.747429,232.641771 L153.747429,230.516057 L147.596571,230.516057 L147.596571,255.438343 L153.747429,255.438343 L153.747429,242.9892 C153.747429,238.737771 155.994857,236.094343 159.606857,236.094343 C161.741143,236.094343 163.909714,236.788629 163.909714,241.924629 L163.909714,255.467486 L170.086286,255.467486 L170.086286,240.882343 C170.086286,234.1332 166.692,230.246914 160.788,230.246914" id="Fill-26" fill="#E20714"></path>
            <g id="Group-30" transform="translate(189.571429, 229.580571)">
                <mask id="mask-4" fill="white">
                    <use xlink:href="#path-3"></use>
                </mask>
                <g id="Clip-29"></g>
                <path d="M12.6422857,10.7461714 L11.5725714,10.3398857 C9.30114286,9.46902857 8.084,8.82102857 8.084,7.90731429 C8.084,7.05188571 9.24285714,6.47417143 10.3177143,6.47417143 C12.188,6.47417143 13.9451429,7.16502857 15.5171429,8.53302857 L16.5594286,9.42445714 L19.8525714,4.42388571 L19.0125714,3.73474286 C16.5028571,1.6776 13.724,0.678171429 10.5028571,0.678171429 C5.57257143,0.678171429 1.84571429,3.78788571 1.84571429,7.90731429 C1.84571429,12.9164571 5.75257143,14.7044571 9.42971429,15.9833143 L9.96285714,16.1770286 C10.1857143,16.2627429 10.4274286,16.3381714 10.6828571,16.4170286 C11.6822857,16.7358857 12.7314286,17.0684571 13.4788571,17.6770286 C13.9365714,18.0507429 14.0874286,18.6370286 13.8765714,19.1821714 C13.7754286,19.4736 13.5594286,19.7324571 13.2988571,19.9176 C12.8977143,20.1970286 12.3354286,20.3478857 11.6068571,20.3976 C10.3777143,20.4833143 9.05085714,20.2741714 7.92457143,19.8198857 C7.33485714,19.5884571 5.86571429,18.9336 4.84057143,17.9873143 L3.82057143,17.0307429 L0.486285714,21.9164571 L1.28171429,22.6038857 C3.93542857,24.9730286 7.17028571,26.1747429 10.9091429,26.1747429 C17.7782857,26.1747429 20.2006511,22.0518857 20.2006511,18.5118857 C20.2194286,13.6261714 16.8868571,12.3576 12.6422857,10.7461714" id="Fill-28" fill="#E20714" mask="url(#mask-4)"></path>
            </g>
            <path d="M28.8466286,253.368 C28.8946286,253.419429 28.9409143,253.457143 29.0060571,253.505143 L29.2460571,253.698857 C29.3094857,253.745143 29.3763429,253.793143 29.4432,253.832571 L29.6197714,253.962857 C29.6643429,253.997143 29.6814857,254.005714 29.7037714,254.005714 L29.7706286,254.067429 C29.7706286,254.067429 29.8837714,254.139429 30.0980571,254.268 C30.7014857,254.622857 31.3460571,254.900571 31.9923429,255.084 L32.1586286,255.128571 C32.2014857,255.159429 32.2443429,255.166286 32.2854857,255.178286 C33.4872,255.543429 34.8843429,255.800571 36.4529143,255.918857 C36.7854857,255.918857 37.1266286,255.937714 37.4626286,255.937714 C37.5963429,255.937714 37.7317714,255.937714 37.8723429,255.924 C40.4283429,255.852 43.1249143,255.401143 45.9243429,254.571429 L46.3597714,254.449714 L46.3597714,237.864 C46.3597714,237.757714 46.3597714,237.66 46.3460571,237.536571 L46.3460571,237.444 C46.3460571,237.363429 46.3254857,237.274286 46.3186286,237.188571 L46.2089143,236.422286 L46.1300571,236.076 C46.1077714,235.990286 46.0820571,235.890857 46.0580571,235.824 L46.0272,235.74 C46.0186286,235.698857 45.9912,235.650857 45.9912,235.642286 L45.9432,235.460571 C45.9294857,235.419429 45.9243429,235.393714 45.9123429,235.362857 L45.6980571,234.882857 C45.6723429,234.793714 45.6329143,234.726857 45.6089143,234.689143 L45.5832,234.620571 C45.1752,233.804571 44.5923429,233.024571 43.8774857,232.385143 C43.0546286,231.653143 42.0877714,231.075429 40.9734857,230.662286 C40.2192,230.401714 39.4066286,230.209714 38.5254857,230.105143 C38.4809143,230.094857 38.4260571,230.094857 38.3557714,230.094857 C37.7934857,230.048571 37.2826286,230.016 36.7940571,230.016 C32.0369143,230.016 28.6769143,232.277143 28.6563429,232.287429 L28.3546286,232.508571 L30.8797714,236.458286 L31.1900571,236.326286 C32.9729143,235.489714 34.6426286,235.054286 36.1340571,235.054286 C38.7397714,235.054286 40.1574857,236.401714 40.3254857,237.344571 C40.3340571,237.380571 40.3477714,237.411429 40.3494857,237.444 L40.3580571,237.514286 C40.3803429,237.553714 40.3820571,237.584571 40.3957714,237.620571 L40.4197714,237.807429 C40.4283429,237.852 40.4283429,237.894857 40.4283429,237.987429 L40.4506286,238.160571 L40.4506286,238.285714 L40.4506286,239.785714 L35.5289143,239.785714 C29.8220571,239.785714 26.4140571,242.842286 26.4140571,247.981714 C26.4140571,249.884571 27.0946286,251.592 28.3940571,252.937714 C28.4472,253.016571 28.5843429,253.141714 28.8466286,253.368 M32.3266286,247.728 C32.2769143,247.026857 32.5169143,246.353143 33.0312,245.854286 C33.8900571,244.998857 35.2134857,244.812 36.1717714,244.812 L40.4506286,244.812 L40.4506286,250.236 C39.4872,250.488 38.4054857,250.62 37.2157714,250.642286 C37.1180571,250.642286 37.0289143,250.630286 36.9757714,250.630286 C36.9054857,250.62 36.8660571,250.62 36.8249143,250.62 C35.8357714,250.582286 34.4232,250.373143 33.3363429,249.574286 C32.7500571,249.133714 32.3763429,248.468571 32.3266286,247.728" id="Fill-31" fill="#E20714"></path>
            <path d="M131.243314,230.258571 C130.055314,230.258571 128.807314,230.448857 127.573029,230.798571 C123.758743,231.900857 120.940457,234.621429 119.6616,238.444286 C118.243886,242.644286 118.9176,247.466571 121.367314,250.746 C123.830743,254.054571 127.111886,255.648857 131.380457,255.648857 C132.354171,255.648857 133.405029,255.564857 134.483314,255.400286 C137.574171,254.913429 139.991314,253.593429 141.871886,251.383714 L142.031314,251.207143 L138.122743,247.581429 L137.958171,247.735714 C136.355314,249.333429 134.279314,250.212857 132.170743,250.212857 C128.807314,250.212857 125.959886,248.056286 125.551886,245.208857 L125.502171,244.920857 L142.777029,244.920857 L142.794171,244.701429 C143.197029,241.555714 142.7376,239.248286 142.267886,237.852857 C140.5416,233.25 136.207886,230.258571 131.243314,230.258571 L131.243314,230.258571 Z M125.651314,240.066 C125.860457,237.969429 127.991314,236.076857 130.420457,235.845429 C133.720457,235.516286 135.942171,236.995714 136.799314,240.066 L125.651314,240.066 Z" id="Fill-33" fill="#E20714"></path>
            <g id="Group-37" transform="translate(0.000000, 263.866286)">
                <mask id="mask-6" fill="white">
                    <use xlink:href="#path-5"></use>
                </mask>
                <g id="Clip-36"></g>
                <path d="M20.2249714,16.9068 C22.4741143,15.2250857 23.7186857,12.6468 23.7186857,9.59194286 C23.7186857,3.63994286 19.5289714,0.3708 11.9192571,0.3708 L-0.000171428571,0.3708 L-0.000171428571,35.6250857 L13.1655429,35.6250857 C20.7889714,35.6250857 25.3541143,31.8588 25.3541143,25.5176571 C25.3541143,21.6570857 23.4804,18.5285143 20.2249714,16.9068 L20.2249714,16.9068 Z M6.42154286,20.4948 L12.2106857,20.4948 C14.6398286,20.4948 18.7078286,21.0982286 18.7078286,25.1576571 C18.7078286,28.9513714 14.5318286,29.5119429 12.0392571,29.5119429 L6.42154286,29.5119429 L6.42154286,20.4948 Z M11.8798286,14.4708 L6.42154286,14.4708 L6.42154286,6.47022857 L11.0929714,6.47022857 C17.1701143,6.47022857 17.1701143,9.4068 17.1701143,10.3770857 C17.1701143,14.1862286 13.1175429,14.4708 11.8798286,14.4708 L11.8798286,14.4708 Z" id="Fill-35" fill="#E20714" mask="url(#mask-6)"></path>
            </g>
            <path d="M67.4196,274.302686 C64.7847429,274.302686 62.3127429,275.146114 60.3738857,276.695829 L60.3738857,274.5684 L54.2110286,274.5684 L54.2110286,299.490686 L60.3738857,299.490686 L60.3738857,287.041543 C60.3738857,282.778114 62.6264571,280.146686 66.2418857,280.146686 C68.3658857,280.146686 70.5327429,280.830686 70.5327429,285.9804 L70.5327429,299.523257 L76.7024571,299.523257 L76.7024571,284.943257 C76.7024571,278.175257 73.3030286,274.302686 67.4196,274.302686" id="Fill-38" fill="#E20714"></path>
            <path d="M49.0061143,281.379257 C49.0061143,281.3004 48.9958286,281.214686 48.9786857,281.127257 L48.8638286,280.359257 L48.6272571,279.423257 C48.6135429,279.378686 48.5964,279.339257 48.5826857,279.292971 L48.5089714,279.130114 C48.4798286,279.059829 48.4506857,278.986114 48.4061143,278.895257 L48.3786857,278.819829 C48.3444,278.7444 48.3032571,278.665543 48.2381143,278.554114 C47.8524,277.744971 47.2729714,276.966686 46.5512571,276.322114 C45.7352571,275.571257 44.7564,274.993543 43.6489714,274.599257 C42.8878286,274.324971 42.0615429,274.138114 41.1632571,274.036971 L41.0329714,274.036971 C40.4552571,273.975257 39.9495429,273.9564 39.4661143,273.9564 C34.9198286,273.9564 31.6832571,275.9844 31.3266857,276.2244 L31.0026857,276.436971 L33.3598286,280.110686 L33.5381143,280.405543 L33.8638286,280.263257 C35.6501143,279.418114 37.3078286,278.992971 38.8026857,278.992971 C41.4084,278.992971 42.8244,280.330114 42.9924,281.291829 C43.0044,281.3484 43.0146857,281.389543 43.0318286,281.437543 C43.0438286,281.476971 43.0455429,281.518114 43.0541143,281.569543 L43.0918286,281.734114 C43.0986857,281.771829 43.0986857,281.831829 43.1038286,281.905543 C43.1038286,281.953543 43.1038286,281.980971 43.1124,282.094114 C43.1244,282.126686 43.1244,282.174686 43.1244,282.214114 L43.1244,283.703829 L38.1906857,283.703829 C32.4838286,283.703829 29.0861143,286.782686 29.0861143,291.916971 C29.0861143,293.818114 29.7529714,295.527257 31.0558286,296.857543 C31.0781143,296.893543 31.2358286,297.058114 31.5272571,297.313543 L31.9112571,297.628971 C32.0141143,297.702686 32.1255429,297.779829 32.2232571,297.838114 L32.3758286,297.966686 L32.4272571,297.9924 C32.4272571,297.9924 32.5472571,298.067829 32.7718286,298.201543 C33.3769714,298.549543 34.0078286,298.827257 34.6678286,299.017543 L34.7175429,299.039829 C34.7912571,299.058686 34.8786857,299.089543 34.9558286,299.116971 C36.1832571,299.490686 37.5872571,299.742686 39.1215429,299.8404 C39.4489714,299.859257 39.7884,299.866114 40.1346857,299.866114 C40.2615429,299.866114 40.3969714,299.866114 40.5409714,299.859257 C43.0764,299.788971 45.7935429,299.329543 48.5878286,298.498114 L49.0181143,298.366114 L49.0181143,281.788971 L49.0181143,281.476971 L49.0061143,281.379257 Z M43.1244,288.755829 L43.1244,294.162686 C42.1729714,294.4164 41.0706857,294.550114 39.8826857,294.579257 C39.7369714,294.567257 39.6289714,294.558686 39.5055429,294.558686 C38.4924,294.510686 37.0678286,294.299829 36.0084,293.502686 C35.4101143,293.067257 35.0449714,292.396971 34.9969714,291.661543 C34.9404,290.941543 35.1924,290.279829 35.7049714,289.7724 C36.5484,288.923829 37.8855429,288.755829 38.8335429,288.755829 L43.1244,288.755829 Z" id="Fill-40" fill="#E20714"></path>
            <path d="M112.731086,269.9484 C112.429371,269.735829 112.035086,269.715257 111.932229,269.715257 L93.0185143,269.715257 C92.1133714,269.715257 91.3710857,270.455829 91.3710857,271.366114 C91.3710857,272.272971 92.1133714,273.015257 93.0185143,273.015257 L97.9385143,272.749543 C98.3653714,273.637543 98.5505143,274.506686 98.6053714,275.272971 L93.3819429,275.272971 C92.5590857,275.272971 91.8956571,275.944971 91.8956571,276.769543 C91.8956571,276.925543 91.9299429,277.0764 91.9710857,277.216971 C92.1579429,277.8204 92.7150857,278.262686 93.3819429,278.262686 L98.3293714,277.978114 C98.3122286,278.017543 98.3036571,278.051829 98.3036571,278.051829 C97.3762286,281.476971 91.7739429,281.3004 91.7739429,281.3004 L89.7442286,281.3004 L88.0316571,281.3004 L88.0316571,279.109543 L88.0316571,264.215829 L81.8979429,264.215829 L81.8979429,299.490686 L88.0316571,299.490686 L88.0316571,287.134114 L89.0413714,287.134114 L90.2208,287.134114 C90.3202286,287.134114 90.3408,287.1564 90.4042286,287.231829 C92.0053714,289.633543 93.6168,292.030114 95.2316571,294.435257 L98.6516571,299.490686 L106.345371,299.490686 L98.7716571,288.558686 C98.2796571,287.836971 97.7876571,287.134114 97.3042286,286.414114 L97.4139429,286.3764 C97.5528,286.3404 97.6916571,286.2924 97.8339429,286.2444 C99.3682286,285.694114 100.6488,284.965543 101.675657,283.998686 C103.3728,282.435257 104.372229,280.417543 104.737371,277.859829 C104.751086,277.751829 104.754514,277.635257 104.771657,277.540971 L109.8888,277.198114 C110.439086,277.156971 110.651657,276.9084 110.793943,276.673543 C110.967086,276.322114 110.883086,276.023829 110.864229,275.944971 C110.727086,275.512971 110.367086,275.2884 109.777371,275.272971 L104.869371,275.272971 C104.852229,274.840971 104.829943,274.3884 104.775086,273.937543 C104.718514,273.407829 104.622514,272.886686 104.504229,272.380971 C106.218514,272.272971 107.855657,272.178686 109.170514,272.098114 L112.014514,271.936971 C112.2528,271.9284 112.683086,271.8324 112.967657,271.458686 C113.091086,271.275257 113.157943,271.054114 113.157943,270.832971 C113.157943,270.486686 113.0208,270.1764 112.731086,269.9484" id="Fill-42" fill="#E20714"></path>
        </g>
    </g>
</svg>